<?xml version="1.0" standalone="no"?>
<!DOCTYPE svg PUBLIC "-//W3C//DTD SVG 20010904//EN"
 "http://www.w3.org/TR/2001/REC-SVG-20010904/DTD/svg10.dtd">
<svg version="1.0" xmlns="http://www.w3.org/2000/svg"
 width="626.000000pt" height="417.000000pt" viewBox="0 0 626.000000 417.000000"
 preserveAspectRatio="xMidYMid meet">

<g transform="translate(0.000000,417.000000) scale(0.100000,-0.100000)"
fill="#000000" stroke="none">
<path d="M0 3659 c1 -494 2 -511 22 -545 11 -18 25 -31 31 -27 5 3 7 1 3 -5
-3 -6 3 -26 14 -45 l21 -35 -38 -31 c-21 -17 -41 -31 -45 -31 -5 0 -8 -661 -8
-1470 l0 -1470 3130 0 3130 0 0 1340 c0 1276 -1 1339 -17 1322 -10 -9 -24 -30
-30 -45 -7 -15 -17 -27 -23 -27 -5 0 -17 -15 -26 -32 -10 -18 -28 -45 -42 -60
-14 -14 -37 -46 -51 -71 -14 -25 -39 -62 -56 -83 -26 -33 -188 -219 -205 -234
-17 -16 -50 -71 -50 -85 0 -8 -3 -15 -7 -15 -5 0 -21 -24 -37 -53 -16 -28 -44
-70 -63 -93 -27 -34 -33 -49 -33 -90 l1 -49 25 29 25 28 -23 25 -22 24 35 -2
c58 -4 82 23 32 36 -21 5 -24 8 -13 15 9 6 17 5 22 -3 4 -6 10 -8 14 -4 4 3 2
13 -5 20 -6 8 -9 21 -6 30 7 16 85 41 85 26 0 -4 8 -5 17 -2 23 9 1 -21 -114
-157 -93 -110 -99 -114 -198 -125 -16 -1 -46 -6 -66 -10 -21 -4 -39 -3 -43 3
-13 21 27 34 118 39 89 6 111 13 86 28 -5 3 -10 20 -10 37 0 17 -3 29 -6 25
-4 -3 -25 3 -48 15 -22 12 -57 22 -76 24 -138 10 -164 14 -187 29 -23 15 -24
21 -18 62 3 24 22 74 42 111 19 37 45 101 58 142 12 41 38 107 58 145 37 74
87 192 87 207 0 5 10 30 22 56 13 26 23 52 23 57 1 6 7 27 14 49 9 25 11 58 7
95 -7 64 11 110 84 211 22 30 53 91 70 135 31 78 54 115 73 115 5 0 6 -7 3
-15 -4 -10 3 -19 19 -27 13 -6 27 -18 30 -27 3 -8 3 -12 -1 -9 -12 12 -50 -42
-46 -65 1 -4 -9 -13 -23 -19 -14 -6 -25 -17 -25 -23 0 -7 -11 -24 -24 -38 -30
-33 -43 -67 -24 -67 10 0 9 -3 -2 -11 -11 -8 -9 -9 10 -3 14 4 28 11 31 16 4
7 9 6 13 0 7 -12 37 -4 48 12 5 8 8 8 8 0 0 -9 11 -9 38 -3 20 5 56 9 80 9 27
0 42 5 42 13 0 9 3 8 9 -2 7 -11 25 -12 104 -2 53 6 116 11 141 11 l46 0 0
164 0 164 -75 68 c-43 39 -84 87 -96 111 -11 24 -24 45 -29 48 -22 14 -100
208 -100 251 0 28 -25 54 -52 54 -46 0 -117 -87 -133 -164 -8 -37 -88 -79
-134 -70 -26 6 -31 11 -31 36 0 17 -4 27 -10 23 -5 -3 -10 -1 -10 4 0 6 4 11
10 11 11 0 26 47 21 69 -1 8 2 10 10 5 9 -5 10 -2 6 10 -4 10 -7 22 -7 26 0 5
-9 7 -20 5 -13 -2 -20 2 -20 11 0 8 3 13 8 11 4 -2 17 6 30 19 l23 24 -23 0
c-21 0 -21 0 -2 15 17 13 18 14 1 15 -16 0 -16 3 4 30 13 16 20 33 16 37 -4 3
-7 1 -7 -5 0 -7 -5 -12 -11 -12 -6 0 -9 6 -6 14 3 8 1 17 -6 20 -7 2 4 2 23
-1 52 -8 188 -40 198 -47 6 -3 27 -8 48 -12 22 -3 42 -11 46 -18 5 -6 8 -1 8
14 1 24 1 24 15 -5 7 -16 14 -24 14 -17 2 25 -19 50 -46 57 -15 3 -30 10 -33
15 -3 5 -21 12 -39 15 -19 3 -37 8 -41 10 -4 2 -21 7 -38 10 -84 14 -232 80
-194 86 27 5 54 2 102 -9 30 -8 83 -20 118 -28 34 -8 80 -21 102 -29 22 -8 40
-12 40 -10 0 2 -4 14 -9 27 -8 23 -64 49 -113 54 -9 0 -25 4 -35 8 -10 4 -32
9 -49 11 -17 3 -44 10 -60 16 -16 7 -31 13 -34 13 -3 1 -11 5 -17 9 -7 5 -17
6 -22 2 -5 -3 -12 -1 -16 5 -4 6 -145 10 -385 10 l-380 0 0 -24 c0 -13 -3 -38
-7 -56 -5 -28 -4 -32 10 -27 9 3 19 2 22 -4 4 -5 0 -11 -7 -14 -10 -4 -13 -23
-10 -73 3 -51 0 -71 -11 -80 -22 -18 -49 -4 -41 22 4 15 -1 11 -18 -11 -23
-33 -38 -42 -38 -22 0 5 -4 8 -9 5 -4 -3 -13 6 -19 19 -7 14 -8 25 -3 25 5 0
12 -6 14 -12 4 -8 6 -9 6 -2 1 6 -5 17 -13 24 -11 8 -13 25 -10 58 3 26 1 61
-5 77 -9 29 -9 28 -10 -15 -1 -25 -6 -52 -12 -60 -8 -11 -9 2 -5 48 5 53 3 62
-11 62 -9 0 -13 3 -10 7 4 3 0 15 -9 25 -12 12 -21 15 -29 8 -9 -7 -16 -6 -25
5 -9 11 -33 15 -92 15 -75 0 -80 -1 -75 -19 3 -11 -1 -22 -8 -25 -15 -5 -35
12 -35 31 0 21 -306 19 -314 -2 -6 -17 -36 -20 -36 -4 0 6 7 9 15 5 8 -3 15
-1 15 4 0 6 -30 10 -67 10 -49 0 -72 -5 -86 -17 -15 -13 -18 -14 -12 -3 5 9 0
8 -13 -4 -23 -20 -29 -32 -11 -21 7 5 8 -5 4 -29 -6 -30 -4 -37 11 -42 11 -4
64 -27 119 -52 55 -25 119 -47 142 -50 30 -3 40 -8 36 -18 -3 -8 1 -14 11 -14
10 0 16 -7 14 -17 -2 -12 4 -17 17 -17 11 0 19 5 18 10 -2 12 307 11 327 -1 7
-4 10 -20 7 -39 -3 -19 1 -35 10 -41 9 -7 15 -32 16 -73 1 -42 6 -62 15 -62
16 0 16 17 -1 23 -7 3 -5 8 8 13 11 4 26 14 33 21 8 7 17 11 22 8 5 -3 11 -1
15 5 3 5 36 10 72 10 48 0 79 6 111 21 36 18 46 19 53 8 6 -11 13 -9 33 11 15
13 26 20 26 17 0 -4 11 0 24 8 14 9 30 15 38 14 7 -2 28 1 46 5 22 5 38 4 47
-4 12 -10 15 -10 15 1 0 10 3 10 12 1 9 -9 14 -7 24 6 10 12 13 13 14 3 0 -7
6 -11 15 -7 9 3 15 0 15 -8 0 -8 7 -16 14 -19 11 -4 13 -1 9 11 -6 14 -4 15 9
5 8 -7 18 -10 21 -6 4 3 7 2 7 -4 0 -6 9 -13 20 -16 11 -3 20 -13 20 -22 0
-15 -3 -15 -15 -5 -20 17 -29 7 -16 -17 7 -15 6 -23 -8 -34 -19 -17 -39 -14
-61 10 -14 14 -24 17 -55 12 -5 -1 4 -8 22 -16 17 -7 41 -23 53 -35 19 -19 19
-22 5 -36 -29 -29 -38 -56 -24 -65 10 -6 8 -9 -7 -9 -12 0 -27 -6 -33 -14 -7
-8 -21 -12 -33 -8 -18 4 -20 2 -16 -16 4 -13 0 -23 -10 -27 -8 -3 -12 -8 -9
-11 8 -8 -25 -44 -41 -44 -7 0 -10 -4 -7 -10 7 -12 -19 -53 -28 -43 -4 3 -7
-5 -7 -20 0 -14 -6 -30 -13 -34 -7 -4 -17 -21 -22 -37 -11 -31 -29 -40 -113
-51 -46 -6 -137 -43 -128 -52 2 -3 13 -1 23 4 10 5 37 11 60 12 39 2 41 1 48
-30 5 -22 3 -34 -6 -40 -10 -6 -7 -10 11 -17 l25 -9 -31 -16 c-17 -9 -37 -23
-44 -32 -19 -23 -108 -80 -154 -99 -41 -17 -70 -21 -47 -7 10 6 1 11 -28 16
-22 4 -41 11 -41 17 0 5 8 7 18 5 9 -3 34 -8 54 -12 31 -5 37 -3 32 10 -4 10
0 15 12 16 12 0 7 4 -10 10 -20 5 -35 4 -45 -4 -12 -10 -14 -9 -8 6 4 12 1 17
-11 18 -9 0 -48 3 -87 5 -49 3 -65 1 -55 -6 8 -5 22 -10 31 -10 9 0 23 -7 30
-17 13 -15 10 -16 -26 -10 -27 5 -33 4 -20 -2 12 -5 27 -16 34 -25 12 -14 12
-16 -3 -10 -12 5 -15 2 -9 -12 5 -13 3 -15 -8 -9 -11 7 -12 6 -2 -6 9 -11 4
-18 -28 -33 -27 -13 -35 -22 -27 -27 7 -5 19 -2 28 6 22 20 65 34 79 26 7 -5
-4 -16 -33 -30 -42 -22 -228 -165 -310 -238 -28 -26 -41 -32 -46 -22 -5 6 -6
19 -3 28 5 13 2 13 -13 -2 -18 -18 -18 -19 -1 -32 12 -9 15 -15 7 -20 -6 -4
-14 -4 -17 -1 -3 3 -18 -3 -33 -14 -16 -11 -32 -20 -37 -20 -5 0 -20 -12 -34
-26 l-24 -27 45 25 c75 42 279 158 375 213 104 59 122 67 129 56 8 -12 -34
-94 -55 -109 -24 -17 -24 -42 -1 -48 22 -6 46 -54 27 -54 -7 0 -15 -4 -17 -9
-3 -10 -112 -90 -258 -189 -52 -36 -108 -79 -123 -96 -17 -18 -26 -24 -23 -13
5 16 3 16 -22 -2 -60 -41 -210 -130 -252 -150 -105 -48 -196 -49 -287 -4 -39
19 -53 32 -53 47 0 30 41 70 110 107 33 17 58 34 56 36 -2 3 -13 0 -25 -6 -11
-7 -22 -7 -25 -2 -4 5 0 12 6 15 7 3 2 4 -12 3 -20 -2 -24 -7 -22 -26 1 -14
-1 -22 -4 -18 -4 4 -12 1 -18 -7 -6 -7 -26 -19 -45 -25 -33 -11 -33 -10 -18 7
21 23 22 39 1 22 -12 -11 -15 -11 -12 1 2 8 -3 13 -10 11 -8 -1 -11 2 -7 8 4
6 1 18 -7 27 -7 9 8 3 33 -14 l45 -31 13 21 c10 15 11 22 2 25 -6 2 -11 15
-11 29 0 18 4 24 14 20 10 -4 13 -1 10 8 -6 15 -44 28 -44 15 0 -13 -62 -2
-73 12 -6 9 -7 6 -4 -9 4 -16 0 -23 -9 -23 -24 0 -29 -31 -8 -48 16 -12 16
-14 2 -9 -10 4 -18 2 -18 -2 0 -5 -9 -7 -20 -4 -11 3 -20 9 -20 14 0 5 -4 9
-9 9 -5 0 -7 -9 -4 -20 5 -19 4 -19 -28 -6 -20 8 -34 21 -34 32 0 9 -6 19 -14
22 -10 3 -11 -2 -6 -19 5 -19 4 -21 -4 -9 -21 30 -12 47 29 58 22 5 51 8 63 5
14 -3 18 -2 10 4 -16 11 -10 48 8 48 8 0 15 13 17 33 3 25 0 32 -15 32 -15 0
-16 -2 -3 -10 12 -8 11 -10 -7 -10 -16 0 -20 5 -16 19 8 32 -14 33 -29 1 -10
-24 -19 -30 -44 -30 -17 0 -37 -7 -44 -15 -7 -8 -17 -15 -23 -15 -6 0 -19 -7
-29 -17 -10 -9 -18 -12 -18 -6 0 10 64 88 120 145 40 40 297 247 317 255 21 8
4 23 -26 23 -15 0 -36 9 -45 19 -23 25 -17 57 9 53 16 -2 17 -1 6 7 -12 7 -10
14 8 36 l21 28 0 -26 c0 -36 17 -43 43 -18 12 11 32 19 45 18 20 -1 21 -5 16
-37 -4 -19 -11 -43 -16 -52 -11 -22 1 -23 27 -3 11 8 37 28 59 45 21 16 45 30
52 30 8 0 14 5 14 11 0 5 -4 7 -10 4 -5 -3 -10 -1 -10 4 0 6 10 11 23 11 16 0
19 3 8 9 -19 12 40 43 85 44 18 1 31 5 28 9 -3 4 -1 8 5 8 18 0 21 -17 6 -30
-8 -7 -12 -17 -8 -23 4 -6 10 -4 17 6 7 8 23 17 36 19 25 3 25 3 -7 23 -18 10
-33 22 -33 25 0 3 17 6 38 6 36 0 118 32 108 42 -3 3 -13 -1 -23 -9 -15 -12
-16 -12 -10 4 4 10 7 27 7 38 0 10 4 19 9 19 5 0 7 -9 4 -20 -4 -16 -2 -19 12
-14 11 5 21 1 27 -10 8 -14 20 -17 56 -14 61 4 80 29 48 61 -13 12 -10 14 22
12 20 -1 43 2 50 8 8 6 12 6 12 -1 0 -11 -38 -28 -52 -24 -5 1 -8 -5 -8 -13 0
-8 8 -15 18 -15 10 0 23 -5 30 -12 9 -9 12 -9 12 0 0 16 60 16 60 0 1 -12 21
10 39 39 5 9 16 10 39 4 38 -11 44 5 13 33 -11 10 -17 24 -14 32 4 10 0 12
-11 8 -11 -4 -16 -1 -16 10 0 9 -5 16 -11 16 -8 0 -7 5 1 15 10 12 10 19 2 27
-17 17 -15 38 5 38 15 0 15 2 -1 19 -10 11 -24 17 -32 14 -8 -3 -14 1 -14 11
0 9 5 16 11 16 5 0 7 -4 4 -10 -3 -5 0 -7 9 -4 8 3 12 12 9 20 -3 8 1 14 11
14 9 0 16 6 16 14 0 7 6 19 14 25 11 10 16 8 24 -5 8 -14 9 -11 7 14 -1 17 -8
38 -15 47 -11 13 -10 19 4 33 17 16 18 16 12 -4 -5 -15 -2 -24 9 -28 9 -3 13
-10 10 -16 -3 -5 -4 -10 -1 -10 3 0 10 10 17 21 9 17 8 20 -2 14 -8 -5 -10 -4
-5 4 4 6 16 9 26 6 10 -3 22 0 26 6 4 7 3 9 -3 6 -5 -3 -17 3 -26 13 -9 11
-12 22 -7 25 6 4 10 2 10 -2 0 -5 12 -10 27 -11 14 -1 35 -10 45 -19 10 -9 21
-13 26 -9 4 4 -3 16 -15 26 -13 10 -23 23 -23 29 0 6 -4 11 -10 11 -5 0 -10
-4 -10 -9 0 -7 -11 -8 -55 -2 -13 1 -18 51 -6 51 5 0 12 -6 15 -12 3 -7 4 -4
3 7 -2 13 -9 19 -20 17 -9 -2 -17 2 -17 8 0 5 -6 10 -14 10 -7 0 -19 7 -27 16
-7 8 -54 36 -103 61 -50 24 -97 50 -104 56 -17 13 -32 -6 -32 -42 0 -13 -11
-44 -25 -68 -20 -33 -40 -50 -88 -73 -34 -17 -68 -38 -74 -47 -7 -9 -13 -13
-13 -7 0 11 -128 49 -153 45 -10 -1 -49 7 -88 19 -57 18 -75 29 -97 59 -17 23
-33 35 -44 33 -21 -4 -24 15 -4 20 12 3 12 9 1 41 -23 68 15 148 86 177 31 13
47 46 30 63 -7 7 -12 6 -16 -5 -4 -9 -15 -13 -34 -10 l-28 4 19 36 c10 20 18
42 18 49 0 26 -44 12 -77 -24 l-34 -38 26 38 27 37 -60 0 c-68 0 -76 -8 -67
-69 4 -29 3 -31 -4 -11 -7 18 -9 20 -10 7 -3 -56 -108 -177 -153 -177 -41 0
-48 11 -37 60 9 40 53 130 64 130 2 0 -1 -14 -6 -32 -11 -39 -3 -50 17 -23 13
17 16 18 24 5 5 -8 10 -19 10 -24 0 -4 14 6 30 24 32 34 33 70 3 70 -10 0 -13
6 -9 16 5 14 4 15 -9 4 -12 -10 -16 -9 -21 4 -6 14 -58 16 -534 16 -413 0
-529 -3 -533 -12 -4 -10 -6 -10 -6 0 -1 6 -13 12 -28 11 -19 0 -23 -3 -13 -7
9 -4 27 -15 40 -24 19 -14 22 -20 12 -30 -7 -7 -12 -20 -12 -30 0 -10 -5 -18
-11 -18 -7 0 -9 12 -5 33 6 32 5 33 -52 55 -48 19 -74 23 -151 21 -85 -2 -98
-5 -137 -30 -54 -37 -65 -37 -29 1 l29 30 -42 0 c-41 0 -42 -1 -42 -35 0 -19
4 -35 9 -35 7 0 20 -30 21 -49 0 -3 -17 -5 -38 -5 -31 -1 -38 -5 -40 -23 -6
-41 -22 -24 -22 23 0 42 2 46 20 40 11 -3 29 -9 40 -12 12 -4 20 -2 20 5 0 6
-6 10 -12 9 -8 -2 -13 7 -13 22 0 33 -22 69 -32 54 -12 -17 -53 -28 -53 -14 0
6 5 8 10 5 6 -3 10 -1 10 4 0 18 -52 12 -66 -6 -13 -17 -13 -17 -14 0 0 16
-48 17 -875 17 l-875 0 0 -511z m2094 437 c31 -59 32 -62 6 -69 -17 -4 -20 -1
-19 21 1 15 -5 44 -14 66 -31 71 -14 60 27 -18z m526 50 c0 -18 -17 -29 -30
-21 -8 5 -7 11 1 21 15 18 29 18 29 0z m947 -8 c-3 -8 -6 -5 -6 6 -1 11 2 17
5 13 3 -3 4 -12 1 -19z m-1687 5 c0 -5 -5 -15 -10 -23 -8 -12 -10 -11 -10 8 0
12 5 22 10 22 6 0 10 -3 10 -7z m578 -30 c-4 -33 -27 -43 -35 -14 -3 12 -14
21 -27 22 -16 1 -13 3 9 9 52 13 57 12 53 -17z m2847 -33 c-7 -34 -24 -82 -37
-108 -22 -43 -27 -47 -57 -44 -19 2 -52 10 -74 18 -22 8 -53 14 -69 14 -16 0
-49 5 -73 11 l-44 11 31 29 c35 31 166 99 195 100 10 0 34 7 53 14 19 7 47 14
61 14 l27 1 -13 -60z m-2425 30 c9 -17 8 -20 -14 -20 -29 0 -44 19 -25 31 21
13 27 11 39 -11z m-156 -11 c21 -16 24 -24 15 -30 -14 -8 -69 25 -69 42 0 16
26 10 54 -12z m746 11 c0 -5 -4 -10 -10 -10 -5 0 -10 5 -10 10 0 6 5 10 10 10
6 0 10 -4 10 -10z m2108 -4 c-2 -1 -10 -7 -18 -13 -13 -10 -16 -8 -16 6 0 13
6 17 19 13 10 -2 16 -5 15 -6z m-3568 -41 c0 -13 -20 -35 -32 -35 -10 0 -11
42 -1 66 6 16 7 16 20 -2 7 -10 13 -23 13 -29z m300 36 c0 -11 -55 -31 -88
-31 -20 0 -22 3 -13 14 7 8 20 12 30 9 10 -3 22 0 25 6 9 13 46 15 46 2z m631
-48 c-8 -15 -10 -15 -11 -2 0 17 10 32 18 25 2 -3 -1 -13 -7 -23z m29 -20 c0
-22 -2 -25 -10 -13 -13 20 -13 40 0 40 6 0 10 -12 10 -27z m-420 1 c0 -8 -4
-12 -10 -9 -5 3 -10 10 -10 16 0 5 5 9 10 9 6 0 10 -7 10 -16z m2361 -4 c10 0
19 -4 19 -10 0 -15 -33 -11 -55 7 -18 14 -18 15 -2 9 10 -3 27 -6 38 -6z
m-2741 -72 c20 -22 43 -33 110 -49 47 -11 95 -26 107 -34 34 -23 27 -66 -19
-116 -48 -52 -61 -44 -20 12 17 23 29 46 26 51 -3 4 2 8 10 8 30 0 16 19 -26
39 -24 10 -72 25 -108 31 -65 13 -100 32 -100 55 0 7 -7 18 -15 25 -8 7 -15
20 -14 29 0 13 2 13 12 -3 7 -11 23 -32 37 -48z m-75 25 c-5 -16 -13 -53 -20
-82 -6 -30 -14 -51 -17 -45 -8 12 25 154 36 154 4 0 5 -12 1 -27z m1093 -5
c-6 -16 -36 -34 -44 -25 -9 9 15 37 33 37 8 0 13 -5 11 -12z m2306 -30 c-5 -7
-1 -9 9 -5 12 5 17 1 17 -13 0 -11 -5 -20 -11 -20 -5 0 -7 -4 -4 -10 3 -5 0
-19 -8 -30 -9 -13 -13 -35 -10 -60 8 -68 -15 -44 -31 33 -23 108 -23 111 -7
124 19 14 55 -2 45 -19z m-3761 5 c13 -8 -24 -43 -45 -43 -10 0 -18 -7 -18
-15 0 -10 -11 -15 -35 -15 -33 0 -35 2 -30 28 4 22 4 24 -4 7 l-10 -20 -1 20
c-2 17 -3 18 -7 2 -6 -22 -23 -12 -23 14 0 18 10 23 38 20 6 -1 12 3 12 9 0
11 103 5 123 -7z m811 -77 c65 -53 159 -100 241 -121 99 -25 192 -19 354 22
52 13 8 -16 -57 -38 -79 -27 -255 -33 -337 -12 -88 23 -286 157 -270 184 9 14
11 13 69 -35z m1045 5 c-15 -5 -22 6 -14 19 6 9 10 9 16 -1 5 -8 4 -15 -2 -18z
m-749 9 c0 -5 -4 -10 -10 -10 -5 0 -10 5 -10 10 0 6 5 10 10 10 6 0 10 -4 10
-10z m-599 -81 c22 -45 38 -84 35 -87 -4 -3 -12 2 -19 12 -12 16 -15 13 -34
-31 -12 -26 -24 -57 -28 -67 -4 -13 -9 -16 -16 -9 -6 6 -1 28 16 64 29 62 31
92 10 142 -15 37 -19 57 -10 57 3 0 23 -36 46 -81z m-305 39 l29 -31 -30 20
c-42 28 -65 35 -65 19 0 -17 -46 -59 -60 -54 -17 5 57 78 79 78 10 0 30 -14
47 -32z m364 12 c0 -11 -4 -20 -9 -20 -11 0 -22 26 -14 34 12 12 23 5 23 -14z
m2335 -20 c3 -5 2 -10 -4 -10 -5 0 -13 5 -16 10 -3 6 -2 10 4 10 5 0 13 -4 16
-10z m-2953 -36 c88 -28 120 -47 111 -69 -6 -16 -93 -10 -133 10 -14 7 -38 15
-55 18 -62 12 -84 25 -78 46 7 29 52 27 155 -5z m337 5 c-16 -10 -23 -4 -14
10 3 6 11 8 17 5 6 -4 5 -9 -3 -15z m1560 9 c11 -11 12 -10 6 1 -5 9 -3 12 6
9 8 -3 15 -22 17 -48 2 -33 0 -41 -11 -37 -9 3 -19 -4 -26 -19 -14 -32 -24
-30 -62 14 -24 27 -28 29 -15 9 l18 -29 -34 7 c-41 9 -38 7 -31 33 5 19 13 24
38 21 3 0 20 11 36 25 35 30 40 31 58 14z m-1439 -12 c14 -18 10 -58 -6 -63
-7 -2 -13 12 -16 37 -4 42 2 49 22 26z m330 -12 c0 -8 -4 -12 -10 -9 -5 3 -10
13 -10 21 0 8 5 12 10 9 6 -3 10 -13 10 -21z m-14 -30 c21 -51 16 -54 -11 -5
-28 48 -30 55 -14 45 6 -3 17 -21 25 -40z m-392 10 c3 -8 2 -12 -4 -9 -6 3
-10 10 -10 16 0 14 7 11 14 -7z m-16 -21 c2 -7 -3 -13 -12 -13 -8 0 -31 -17
-52 -37 l-37 -38 26 37 c15 20 27 44 27 53 0 19 41 17 48 -2z m3452 -14 c0 -6
-4 -7 -10 -4 -5 3 -10 11 -10 16 0 6 5 7 10 4 6 -3 10 -11 10 -16z m-3110 -85
c80 -29 130 -58 130 -76 0 -7 -7 -6 -17 3 -29 23 -75 45 -133 64 -56 18 -90
40 -90 58 0 6 8 3 18 -6 9 -8 51 -28 92 -43z m1934 10 c3 -8 2 -12 -4 -9 -6 3
-10 10 -10 16 0 14 7 11 14 -7z m-2175 -78 c-5 -6 -9 7 -8 35 l1 44 8 -35 c5
-20 5 -39 -1 -44z m-75 33 c14 -17 26 -36 26 -42 0 -6 -8 0 -17 13 -10 14 -27
33 -38 42 -11 10 -15 17 -8 18 6 0 23 -14 37 -31z m2102 19 c-1 -7 -5 -19 -10
-27 -6 -10 -4 -12 11 -7 11 4 33 2 49 -4 16 -6 30 -8 31 -3 9 25 24 36 52 38
29 2 30 0 16 -15 -8 -9 -15 -26 -15 -38 0 -12 -4 -22 -8 -22 -5 0 -14 -11 -22
-24 -19 -36 -71 -61 -97 -48 -16 9 -21 24 -26 79 -3 37 -3 71 0 75 7 13 21 9
19 -4z m-651 -13 c-70 -12 -95 -11 -95 6 0 5 37 8 83 8 l82 -1 -70 -13z m145
6 c0 -5 -7 -12 -16 -15 -24 -9 -28 -7 -14 9 14 17 30 20 30 6z m165 -1 c-3 -5
-21 -9 -38 -9 l-32 1 30 8 c43 11 47 11 40 0z m-1550 -13 c-11 -7 -35 -27 -55
-46 -32 -31 -33 -35 -15 -41 12 -4 1 -7 -28 -7 -26 0 -47 4 -47 9 0 5 4 7 9 4
5 -4 13 13 17 36 4 24 9 35 12 26 5 -24 19 -22 67 7 22 14 45 25 50 24 6 0 1
-6 -10 -12z m355 -43 c0 -14 -6 -24 -14 -24 -16 0 -31 34 -21 49 10 18 35 0
35 -25z m1143 -4 c12 -1 38 -9 57 -20 33 -18 33 -19 10 -20 -14 0 -37 7 -52
14 -36 19 -35 14 5 -42 41 -60 83 -102 101 -102 7 0 16 -9 19 -20 7 -28 -2
-25 -44 16 -35 34 -39 36 -70 25 -47 -16 -49 -15 -49 29 0 23 5 40 11 40 7 0
9 -10 7 -25 -3 -14 -2 -25 2 -25 12 0 20 28 14 45 -8 19 -66 15 -77 -5 -4 -8
-6 6 -3 31 4 52 38 113 44 78 2 -12 12 -19 25 -19z m-1460 17 c3 -8 1 -20 -4
-28 -6 -10 -9 -7 -9 14 0 29 5 35 13 14z m1659 -5 c11 -13 10 -14 -10 -7 -21
6 -22 5 -13 -12 7 -10 20 -31 30 -48 19 -33 80 -56 125 -48 33 7 29 22 -10 43
-30 17 -38 40 -16 48 6 2 12 -3 12 -11 0 -16 76 -77 96 -77 7 0 10 -8 7 -21
-8 -29 -68 -52 -118 -46 l-40 6 -1 -64 c-1 -55 -5 -69 -30 -99 -16 -19 -36
-44 -44 -54 -19 -25 -50 -35 -70 -22 -13 9 -13 12 3 21 9 5 17 17 17 26 0 13
3 13 15 3 18 -15 17 -16 44 35 11 22 21 56 21 75 0 45 -30 128 -69 189 -17 26
-31 53 -31 59 0 23 64 27 82 4z m418 -2 c0 -5 10 -10 22 -10 37 0 11 -12 -31
-14 -39 -2 -40 -1 -24 16 18 20 33 24 33 8z m-2300 -61 c0 -17 -19 -18 -35 -3
-13 13 -13 19 -3 31 10 13 14 13 25 -3 7 -10 13 -21 13 -25z m172 19 c-4 -15
-22 -27 -22 -14 0 2 -2 11 -5 18 -4 9 2 14 13 14 13 0 18 -6 14 -18z m170 -5
c-29 -14 -56 -22 -59 -19 -7 7 76 46 97 45 8 0 -9 -12 -38 -26z m-772 -14 c-6
-11 -17 -22 -24 -25 -19 -7 -15 -65 4 -59 11 4 15 -3 15 -28 0 -17 -3 -37 -8
-44 -4 -6 -4 -18 -1 -27 4 -9 1 -16 -6 -16 -8 0 -9 -4 -3 -12 5 -7 10 -28 11
-46 3 -36 23 -81 53 -121 12 -15 19 -40 19 -67 0 -48 -1 -49 -32 -33 -11 6
-22 8 -25 5 -3 -3 6 -10 21 -15 19 -8 26 -18 26 -36 0 -14 -3 -25 -7 -25 -15
0 -278 93 -290 102 -7 6 -11 14 -8 18 3 5 -3 11 -12 13 -10 3 -4 5 13 6 17 0
77 -13 133 -30 109 -32 146 -35 58 -4 -159 56 -160 56 -140 71 22 16 10 18
-19 3 -11 -6 -18 -7 -15 -2 3 5 -3 16 -14 23 -22 16 -25 30 -6 30 7 0 19 9 27
20 8 11 20 20 27 20 7 0 17 9 23 19 6 13 18 18 35 16 18 -2 31 5 45 25 11 15
17 30 13 33 -3 4 -7 21 -9 40 -3 28 1 37 27 56 20 15 28 28 25 38 -4 9 -1 22
5 29 8 10 8 14 0 14 -6 0 -12 -6 -13 -12 0 -7 -2 -17 -2 -23 -1 -5 -7 -19 -14
-30 -11 -18 -12 -17 -6 9 5 21 4 27 -5 22 -15 -10 -14 5 3 27 7 9 21 17 30 17
9 0 16 5 16 10 0 6 9 10 20 10 18 0 19 -3 10 -21z m67 -16 c3 -7 0 -27 -8 -44
l-12 -31 -18 23 c-18 23 -25 60 -13 71 9 10 45 -4 51 -19z m793 -5 c0 -13 -5
-30 -10 -38 -7 -11 -10 -5 -10 23 0 20 5 37 10 37 6 0 10 -10 10 -22z m1791
-2 c-9 -11 -7 -15 10 -19 l20 -6 -20 -20 c-24 -24 -33 -26 -30 -8 1 6 -2 21
-6 31 -6 13 -3 23 10 32 22 16 33 10 16 -10z m-2091 -22 c0 -22 -4 -25 -27
-22 -34 4 -40 22 -11 36 34 16 38 14 38 -14z m1047 10 c0 -29 -346 -303 -384
-304 -29 0 -38 16 -13 23 11 3 20 11 20 18 0 10 -3 10 -12 1 -9 -9 -16 -8 -30
5 -17 15 -17 17 0 29 30 23 48 17 26 -8 -21 -25 -20 -24 82 53 39 30 96 70
128 89 31 19 83 52 114 72 65 43 69 44 69 22z m576 -4 c-3 -11 -9 -17 -14 -14
-14 8 -10 34 5 34 9 0 12 -7 9 -20z m-573 -72 l-65 -60 69 51 c63 46 106 64
106 43 0 -13 -56 -62 -212 -186 -82 -64 -148 -119 -148 -122 0 -7 53 33 206
157 130 104 160 125 129 89 -11 -12 -87 -76 -168 -142 -82 -66 -157 -128 -166
-137 -9 -9 -28 -25 -41 -34 -13 -9 -22 -19 -19 -21 2 -2 98 72 214 165 115 93
214 169 220 169 15 -1 -45 -52 -264 -229 -235 -190 -230 -185 -238 -177 -4 4
-3 10 2 14 6 4 10 22 11 40 1 18 3 34 5 36 2 1 26 19 53 39 27 20 42 37 34 37
-9 0 -41 -25 -72 -55 -52 -51 -85 -75 -56 -40 7 8 14 33 15 55 4 49 19 70 51
70 15 0 42 19 75 53 64 64 311 259 318 251 4 -4 -23 -33 -59 -66z m467 30 c-3
-8 -6 -5 -6 6 -1 11 2 17 5 13 3 -3 4 -12 1 -19z m3 -80 c0 -22 49 -80 61 -72
5 3 7 26 5 51 -2 25 0 41 4 37 12 -12 24 -72 22 -110 -1 -20 6 -38 18 -49 25
-23 25 -35 1 -35 -11 0 -29 12 -40 27 -21 25 -22 26 -36 7 -8 -10 -14 -28 -13
-39 3 -35 -42 -125 -63 -125 -12 0 -16 5 -13 15 8 19 -5 19 -45 -1 -35 -17
-47 -14 -37 11 4 10 13 14 24 11 14 -5 22 1 31 20 11 26 12 26 27 8 14 -18 15
-17 10 14 -4 26 1 41 25 75 17 23 34 42 39 42 5 0 11 3 15 7 9 9 -36 69 -47
62 -5 -3 -8 -2 -7 3 1 4 0 17 -1 28 -2 15 -4 12 -10 -10 -5 -20 -7 -6 -6 43
l1 74 17 -39 c10 -21 18 -46 18 -55z m620 71 c0 -12 8 -28 18 -35 15 -12 15
-15 2 -24 -28 -18 -48 -12 -46 15 0 14 4 25 8 25 3 0 4 9 1 20 -3 11 0 20 6
20 6 0 11 -10 11 -21z m-1335 -35 c-63 -51 -173 -123 -178 -117 -4 3 -12 1
-19 -4 -7 -6 -24 -14 -37 -18 -21 -6 -19 -2 13 25 20 18 39 30 42 27 4 -3 49
23 102 58 92 62 139 79 77 29z m-695 16 c0 -5 -2 -10 -4 -10 -3 0 -8 5 -11 10
-3 6 -1 10 4 10 6 0 11 -4 11 -10z m620 -4 c-18 -23 -110 -79 -117 -72 -8 8
-8 8 62 50 67 40 73 42 55 22z m1380 -61 c6 -3 10 -11 10 -16 0 -17 -18 -1
-33 29 -7 15 -11 34 -8 42 3 9 8 2 13 -17 5 -18 13 -35 18 -38z m-490 34 c0
-6 -4 -7 -10 -4 -5 3 -10 11 -10 16 0 6 5 7 10 4 6 -3 10 -11 10 -16z m115 11
c3 -5 0 -19 -8 -30 -13 -19 -14 -18 -14 10 0 30 10 39 22 20z m-1535 -28 c0
-24 -8 -32 -26 -25 -22 8 -17 43 6 43 13 0 20 -7 20 -18z m1855 -9 c-31 -8
-47 -25 -42 -45 6 -23 -9 -24 -18 -1 -3 10 -1 19 4 21 6 2 11 9 11 16 0 6 14
12 33 13 18 1 23 -1 12 -4z m-2728 -25 c-3 -8 -6 -5 -6 6 -1 11 2 17 5 13 3
-3 4 -12 1 -19z m1863 -20 c-19 -16 -118 -98 -220 -181 -102 -83 -192 -157
-202 -164 -9 -8 -18 -10 -21 -5 -6 8 36 45 258 227 153 126 207 166 214 159 3
-3 -10 -19 -29 -36z m204 14 c-17 -15 -38 -38 -47 -52 -9 -14 -24 -36 -33 -50
-10 -14 17 10 60 53 42 42 80 77 84 77 4 0 6 -26 5 -57 -1 -62 -20 -124 -31
-107 -4 6 -13 13 -19 15 -10 3 -9 11 2 33 18 34 18 36 5 36 -5 0 -10 -7 -10
-17 0 -9 -3 -14 -6 -11 -7 7 -64 -48 -64 -62 0 -5 -6 -10 -14 -10 -7 0 -19 -7
-26 -15 -7 -8 -17 -12 -22 -9 -5 3 -1 15 9 27 10 11 13 17 6 14 -15 -9 -11 49
5 80 7 12 10 28 7 35 -3 7 4 19 15 26 25 15 26 5 3 -15 -11 -9 -12 -12 -3 -7
8 4 22 13 30 20 8 7 26 14 40 17 14 2 27 5 30 5 3 1 -9 -11 -26 -26z m286 3
c-7 -8 -17 -15 -22 -15 -6 0 -5 7 2 15 7 8 17 15 22 15 6 0 5 -7 -2 -15z m471
-46 c-12 -19 -21 -28 -21 -21 0 6 -9 21 -20 32 -15 15 -16 20 -6 20 8 0 18 -4
21 -10 3 -5 11 -10 16 -10 6 0 8 4 5 9 -4 5 0 11 6 14 21 7 20 1 -1 -34z
m-2465 18 c14 -8 20 -22 20 -42 -1 -26 2 -30 23 -27 32 5 70 29 98 61 18 20
25 23 35 13 9 -9 9 -12 0 -12 -7 0 -12 -5 -12 -11 0 -5 4 -8 9 -4 5 3 12 1 16
-5 3 -5 2 -10 -3 -10 -6 0 -8 -10 -5 -22 4 -19 3 -20 -6 -8 -6 8 -11 12 -12 8
-2 -13 -8 -72 -9 -91 -1 -12 -6 -17 -15 -14 -9 4 -17 -9 -26 -38 -10 -34 -18
-44 -32 -42 -11 1 -22 -4 -24 -10 -3 -10 13 -13 59 -14 l63 -2 -83 -9 c-73 -8
-86 -7 -110 9 -29 20 -57 33 -110 53 -55 21 -58 42 -16 105 21 32 44 55 54 55
10 0 21 10 25 23 4 12 8 25 10 30 1 4 3 9 4 12 2 9 25 5 47 -8z m2394 -8 c0
-13 -13 -11 -35 5 -18 13 -18 14 8 9 15 -3 27 -9 27 -14z m-350 -31 c0 -10 -4
-18 -10 -18 -5 0 -10 15 -10 33 0 24 3 28 10 17 5 -8 10 -23 10 -32z m450 -8
c0 8 3 11 6 7 3 -3 3 -10 0 -16 -8 -12 -36 -3 -36 11 0 6 6 5 15 -2 12 -10 15
-10 15 0z m-153 -6 c-3 -3 -12 -4 -19 -1 -8 3 -5 6 6 6 11 1 17 -2 13 -5z
m-803 -49 c-13 -20 -288 -263 -367 -324 -33 -26 -31 -1 4 36 19 21 25 30 13
20 -11 -9 -24 -17 -29 -17 -4 0 23 25 60 55 36 30 73 55 80 55 7 0 22 10 32
23 10 13 26 26 36 30 11 4 15 12 11 18 -4 7 -3 9 2 6 6 -3 44 23 84 58 81 69
100 79 74 40z m753 -32 c-3 -3 -11 -2 -17 2 -9 6 -9 10 1 16 14 8 27 -7 16
-18z m-4152 -23 c3 -5 1 -10 -4 -10 -6 0 -11 5 -11 10 0 6 2 10 4 10 3 0 8 -4
11 -10z m3384 -55 l-2 -55 -89 -82 c-49 -46 -97 -86 -106 -89 -9 -4 -26 -16
-36 -28 -15 -16 -22 -18 -33 -10 -11 9 -21 3 -51 -27 -38 -41 -88 -72 -98 -61
-3 3 6 13 21 23 22 15 60 69 53 76 -1 2 22 26 52 53 114 104 167 153 220 203
30 28 58 52 62 52 5 0 7 -25 7 -55z m-3344 25 c3 -5 -3 -10 -14 -10 -12 0 -21
5 -21 10 0 6 6 10 14 10 8 0 18 -4 21 -10z m510 -17 c45 -22 82 -95 89 -176 2
-32 7 -61 10 -65 3 -3 6 -1 6 4 0 5 9 10 20 10 26 0 25 -8 -1 -24 -14 -9 -18
-19 -14 -30 15 -39 16 -144 1 -167 -8 -12 -12 -31 -10 -42 3 -11 -2 -27 -10
-36 -9 -8 -16 -26 -16 -39 0 -56 -96 -106 -165 -87 -47 13 -155 87 -167 115
-6 13 -15 24 -21 24 -5 0 -7 7 -3 15 3 8 1 15 -4 15 -5 0 -7 7 -4 15 4 8 1 15
-5 15 -6 0 -11 7 -11 16 0 14 3 14 15 4 9 -7 18 -10 22 -6 3 3 1 6 -5 6 -6 0
-14 10 -18 22 -8 25 -29 50 -37 42 -6 -7 -46 79 -40 89 2 4 13 7 23 7 10 0 22
5 26 11 4 8 0 9 -15 4 -29 -9 -27 4 14 84 38 76 80 117 165 162 63 33 104 36
155 12z m-466 -16 c8 -11 7 -18 -7 -31 -22 -19 -32 -12 -32 21 0 25 21 31 39
10z m915 -10 c14 -11 20 -35 26 -118 4 -57 15 -121 24 -143 20 -49 21 -115 1
-122 -17 -7 -44 17 -50 43 -3 10 -20 68 -38 128 -45 148 -51 189 -31 209 19
19 44 20 68 3z m2196 -11 c0 -2 -8 -10 -17 -17 -16 -13 -17 -12 -4 4 13 16 21
21 21 13z m1920 -37 c-7 -11 -14 -18 -17 -15 -3 3 0 12 7 21 18 21 23 19 10
-6z m-4966 -18 c16 -30 12 -41 -26 -70 -15 -12 -19 -10 -28 14 -5 14 -14 23
-20 20 -6 -4 -4 -18 6 -37 15 -29 15 -32 -5 -51 -16 -17 -23 -19 -33 -9 -18
18 -32 14 -17 -5 7 -10 0 -6 -15 8 -27 25 -27 27 -13 56 17 32 40 55 53 52 20
-3 35 2 29 10 -3 5 -1 12 5 16 6 4 8 10 6 14 -3 4 6 8 20 9 17 1 28 -6 38 -27z
m1291 9 c128 -28 184 -49 196 -71 15 -29 -12 -52 -54 -44 l-32 6 27 -16 c23
-13 26 -19 18 -39 -5 -13 -6 -33 -3 -45 7 -26 -14 -115 -38 -162 -19 -39 -49
-69 -49 -50 0 7 -9 9 -26 5 -18 -5 -30 -1 -45 14 -10 12 -19 26 -19 32 0 6
-14 16 -30 22 -19 6 -29 16 -28 26 2 10 -14 21 -52 34 -59 21 -81 34 -40 25
14 -3 39 -9 55 -12 l30 -6 -28 18 c-15 10 -25 23 -23 30 3 7 1 15 -4 18 -6 4
-10 1 -10 -4 0 -6 -4 -11 -10 -11 -5 0 -10 7 -10 15 0 8 -5 15 -11 15 -5 0 -7
-5 -3 -12 4 -7 3 -8 -4 -4 -27 16 -11 28 31 23 l42 -6 -50 18 c-27 10 -50 23
-49 29 1 7 2 21 3 33 1 20 5 21 60 14 60 -7 86 4 62 28 -7 7 -12 6 -17 -6 -9
-24 -23 -21 -17 3 7 26 29 25 132 -5 107 -32 125 -31 41 1 -73 28 -71 26 -124
57 -44 24 -58 47 -29 47 10 0 59 -9 108 -20z m1175 0 c0 -5 -4 -10 -10 -10 -5
0 -10 5 -10 10 0 6 5 10 10 10 6 0 10 -4 10 -10z m2430 -5 c9 -11 10 -18 1
-28 -6 -8 -7 -18 -3 -22 4 -5 -9 4 -29 20 -20 17 -34 33 -32 38 7 13 50 8 63
-8z m248 -35 c-12 -35 -34 -54 -23 -20 6 18 4 21 -12 17 -16 -5 -141 -21 -168
-22 -5 0 -14 -6 -18 -12 -4 -7 -12 -13 -18 -13 -5 0 -2 11 8 24 15 20 30 25
97 30 43 4 90 13 105 20 34 18 42 12 29 -24z m-424 15 c-4 -8 -10 -15 -15 -15
-5 0 -9 7 -9 15 0 8 7 15 15 15 9 0 12 -6 9 -15z m-318 -23 c-17 -16 -18 -16
-5 5 7 12 15 20 18 17 3 -2 -3 -12 -13 -22z m424 -18 c0 -25 -4 -43 -8 -40 -5
3 -8 19 -7 36 1 16 -2 30 -7 30 -4 0 -8 5 -8 10 0 6 7 10 15 10 11 0 15 -12
15 -46z m-2270 22 c0 -11 -19 -15 -25 -6 -3 5 1 10 9 10 9 0 16 -2 16 -4z
m270 0 c0 -2 -8 -10 -17 -17 -16 -13 -17 -12 -4 4 13 16 21 21 21 13z m-624
-128 c-9 29 32 42 50 17 12 -17 14 -17 20 -1 3 9 3 31 0 49 -6 30 -5 30 7 12
24 -34 167 -295 167 -304 0 -5 -7 -11 -15 -15 -17 -6 -20 -51 -5 -61 6 -3 10
-11 10 -18 0 -6 -8 0 -17 13 -9 14 -18 27 -20 29 -1 2 -12 -7 -24 -20 -17 -20
-22 -21 -29 -9 -5 9 -28 40 -52 70 l-43 54 -5 -39 c-5 -37 -6 -36 -13 25 -4
35 -12 69 -17 74 -6 6 -10 21 -10 33 0 33 -35 97 -82 151 -22 26 -13 18 22
-17 36 -37 59 -55 56 -43z m-2204 70 c-7 -7 -12 -8 -12 -2 0 14 12 26 19 19 2
-3 -1 -11 -7 -17z m2638 12 c0 -5 -4 -10 -10 -10 -5 0 -10 5 -10 10 0 6 5 10
10 10 6 0 10 -4 10 -10z m-888 -23 c4 -6 4 -15 2 -19 -3 -4 -1 -8 4 -8 5 0 12
-9 15 -20 3 -11 11 -19 17 -18 7 2 15 -3 18 -11 3 -8 0 -11 -7 -7 -6 4 -11 3
-11 -3 0 -9 31 -31 44 -31 3 0 6 7 6 16 0 13 6 15 28 9 22 -5 25 -4 15 6 -16
16 -17 51 -1 67 15 15 87 16 123 2 23 -9 27 -15 23 -40 -3 -17 0 -27 5 -23 6
4 8 -3 4 -16 -4 -16 2 -27 23 -43 17 -12 26 -26 23 -35 -5 -12 1 -13 31 -7
l37 6 -3 -33 c-2 -26 -8 -35 -25 -37 -13 -2 -23 -10 -23 -18 0 -8 -4 -13 -9
-10 -5 3 -7 14 -4 25 3 11 -2 21 -13 25 -13 5 -14 4 -6 -7 13 -16 4 -57 -12
-57 -16 0 -42 21 -49 40 -4 12 -6 11 -6 -2 -1 -10 -6 -18 -11 -18 -6 0 -4 -10
5 -23 11 -18 12 -31 5 -57 -13 -44 -13 -42 11 -35 26 8 109 9 117 0 3 -3 1
-15 -6 -26 -7 -10 -10 -32 -6 -47 l5 -27 -21 24 c-11 13 -24 20 -28 16 -4 -4
-1 -10 6 -12 22 -8 13 -33 -13 -33 -14 0 -25 -4 -25 -10 0 -5 7 -10 16 -10 11
0 14 -5 10 -16 -3 -9 -6 -20 -6 -25 0 -5 -10 -14 -22 -20 -13 -5 -34 -17 -48
-25 -15 -9 -37 -12 -57 -9 -18 3 -34 1 -38 -5 -4 -6 -15 -8 -25 -5 -10 3 -22
1 -26 -6 -5 -9 8 -10 52 -5 66 7 56 -7 -12 -19 -29 -4 -53 -1 -80 10 -22 10
-33 19 -26 22 22 8 -7 33 -38 33 -30 0 -45 21 -27 39 8 8 1 11 -28 11 -25 0
-35 3 -27 8 9 6 0 12 -27 20 -29 9 -42 20 -49 42 -8 22 -8 32 1 37 8 5 3 9
-12 13 -18 4 -25 13 -26 34 0 15 -9 32 -18 38 -17 9 -17 12 -3 33 8 12 12 25
9 29 -13 12 -11 72 3 87 8 9 14 20 13 25 -5 26 2 35 22 29 15 -5 19 -4 15 4
-4 6 0 11 10 11 16 0 16 1 0 19 -17 19 -17 21 8 46 14 14 26 30 26 35 0 14 40
32 56 26 8 -3 14 -1 14 5 0 13 42 1 52 -14z m1459 6 c-19 -36 -122 -123 -145
-123 -11 0 135 139 147 140 4 0 3 -8 -2 -17z m1883 -28 c-21 -50 -9 -91 50
-179 52 -78 60 -96 42 -96 -8 0 -17 6 -19 13 -3 6 -6 1 -6 -13 -1 -40 -28 -70
-62 -70 -16 0 -29 4 -29 9 0 15 23 26 47 23 18 -3 22 3 28 37 6 35 1 52 -42
138 -44 88 -56 133 -34 133 4 0 13 12 20 26 18 41 23 22 5 -21z m-2359 -5 c3
-5 -1 -10 -9 -10 -8 0 -18 5 -21 10 -3 6 1 10 9 10 8 0 18 -4 21 -10z m2229
-47 c9 -23 -10 -13 -45 23 l-34 36 37 -23 c21 -13 40 -30 42 -36z m-1744 33
c0 -2 -7 -7 -16 -10 -8 -3 -12 -2 -9 4 6 10 25 14 25 6z m-196 -48 c-10 -16
-143 -142 -155 -146 -5 -2 -9 1 -9 7 0 8 158 150 168 151 2 0 0 -6 -4 -12z
m-2480 -13 c3 -8 1 -15 -4 -15 -6 0 -10 7 -10 15 0 8 2 15 4 15 2 0 6 -7 10
-15z m1996 -5 c0 -5 -2 -10 -4 -10 -3 0 -8 5 -11 10 -3 6 -1 10 4 10 6 0 11
-4 11 -10z m-2511 -31 c10 -11 21 -30 24 -40 5 -17 3 -18 -11 -7 -13 11 -15
11 -10 -3 4 -9 1 -22 -5 -29 -10 -10 -7 -12 11 -7 12 3 22 1 22 -4 0 -5 -9 -9
-19 -9 -14 0 -18 -5 -14 -20 4 -14 1 -19 -8 -15 -13 5 -37 47 -40 70 0 6 -5
16 -11 23 -7 8 -7 12 1 12 6 0 16 -9 23 -20 7 -11 17 -20 22 -20 5 0 2 8 -7
18 -22 24 -22 33 0 25 11 -4 14 -3 9 6 -5 7 -14 10 -21 7 -19 -7 -27 5 -14 21
16 18 25 16 48 -8z m2556 11 c3 -5 1 -10 -4 -10 -6 0 -11 5 -11 10 0 6 2 10 4
10 3 0 8 -4 11 -10z m245 0 c0 -5 -5 -10 -11 -10 -5 0 -7 5 -4 10 3 6 8 10 11
10 2 0 4 -4 4 -10z m2138 -89 c-41 -76 -42 -80 -31 -122 6 -24 15 -52 18 -61
4 -10 3 -18 -2 -18 -6 0 -19 32 -31 72 l-21 72 29 29 c16 17 27 33 25 37 -6
10 -127 -27 -136 -41 -3 -6 -10 -4 -18 5 -11 13 -2 18 61 36 40 12 87 33 103
45 17 13 34 24 38 25 4 0 -11 -36 -35 -79z m-2433 39 c-3 -5 -12 -10 -18 -10
-7 0 -6 4 3 10 19 12 23 12 15 0z m355 5 c0 -2 -12 -15 -27 -29 -18 -17 -29
-22 -34 -14 -4 7 5 19 24 29 37 20 37 21 37 14z m1905 -25 c3 -5 -1 -10 -10
-10 -9 0 -13 5 -10 10 3 6 8 10 10 10 2 0 7 -4 10 -10z m-2087 -17 c2 -8 -6
-13 -22 -13 -26 0 -40 12 -29 24 11 11 46 2 51 -11z m1952 3 c0 -3 -4 -8 -10
-11 -5 -3 -10 -1 -10 4 0 6 5 11 10 11 6 0 10 -2 10 -4z m-3735 -46 c7 0 15
-11 17 -24 5 -26 -7 -36 -44 -36 -16 0 -18 3 -9 14 9 11 9 15 0 18 -9 3 -9 10
1 28 8 15 15 20 18 12 2 -6 10 -12 17 -12z m1885 -28 c0 -24 -1 -24 -19 -8
-23 21 -18 64 5 45 8 -6 14 -23 14 -37z m93 26 c-13 -12 -25 -19 -29 -16 -9 9
18 37 36 38 10 0 8 -6 -7 -22z m1797 2 c0 -5 -5 -10 -11 -10 -5 0 -7 5 -4 10
3 6 8 10 11 10 2 0 4 -4 4 -10z m330 -6 c0 -8 -4 -12 -10 -9 -5 3 -10 10 -10
16 0 5 5 9 10 9 6 0 10 -7 10 -16z m-2869 -27 c-10 -9 -11 -8 -5 6 3 10 9 15
12 12 3 -3 0 -11 -7 -18z m516 -10 c11 4 14 2 11 -8 -6 -18 -37 -24 -50 -11
-6 6 -8 19 -4 29 7 17 8 17 17 1 6 -10 16 -15 26 -11z m-557 -28 c0 -33 -2
-34 -29 -17 -17 11 -18 14 -4 35 19 28 33 21 33 -18z m2698 22 c3 -10 -3 -12
-26 -7 -25 6 -33 3 -51 -20 -14 -18 -21 -22 -21 -11 0 8 -3 22 -6 30 -4 11 2
17 18 19 45 7 81 3 86 -11z m302 9 c0 -5 -6 -10 -14 -10 -8 0 -18 5 -21 10 -3
6 3 10 14 10 12 0 21 -4 21 -10z m-3050 -14 c-6 -8 -18 -12 -26 -9 -19 7 -7
23 18 23 17 0 18 -3 8 -14z m105 -6 c-3 -5 -11 -10 -16 -10 -6 0 -7 5 -4 10 3
6 11 10 16 10 6 0 7 -4 4 -10z m-2083 -71 c7 -5 8 -9 2 -9 -12 0 -37 -50 -29
-58 3 -3 47 -5 98 -4 50 1 109 -3 131 -9 59 -16 132 -90 158 -161 12 -33 27
-62 35 -65 24 -10 13 -45 -27 -85 -22 -22 -37 -44 -35 -49 3 -4 -8 -15 -24
-23 -32 -17 -69 -76 -48 -76 7 -1 1 -7 -13 -15 -29 -16 -94 -20 -85 -5 3 6 -1
7 -9 4 -9 -3 -16 -1 -16 5 0 6 7 11 15 11 9 0 15 9 15 22 0 17 -3 19 -12 10
-16 -16 -55 -15 -62 1 -3 6 -3 2 0 -10 3 -14 1 -23 -6 -23 -6 0 -8 -4 -5 -10
4 -6 -14 -10 -47 -10 -58 0 -100 9 -94 19 2 3 -12 5 -32 3 -45 -4 -96 13 -86
30 5 8 2 9 -10 5 -9 -4 -15 -3 -12 2 3 4 -3 16 -14 26 -25 22 -27 44 -2 23 19
-17 52 -30 52 -22 0 21 -64 134 -75 134 -24 0 -40 73 -26 119 11 39 103 151
123 151 5 0 7 -4 4 -9 -4 -5 -3 -16 0 -25 8 -20 31 -8 77 39 31 32 34 39 31
88 -3 45 -2 48 5 18 5 -18 15 -37 23 -42z m876 49 c2 -13 -7 -18 -41 -23 -56
-9 -79 -4 -84 15 -4 12 -3 12 5 2 8 -11 10 -11 15 1 3 9 21 18 39 20 50 6 62
3 66 -15z m1516 -5 c8 -16 31 -44 51 -65 20 -20 37 -42 39 -50 1 -7 5 -19 9
-25 6 -9 3 -11 -8 -7 -9 4 -14 12 -11 19 2 7 -7 23 -21 36 -25 24 -83 103 -83
113 0 14 10 4 24 -21z m-973 -25 c6 -24 13 -46 16 -50 2 -5 2 -8 -1 -8 -7 0
-46 76 -46 90 0 27 20 5 31 -32z m3671 19 c-12 -13 -19 -27 -15 -30 3 -4 2 -7
-4 -7 -5 0 -12 2 -15 5 -7 7 33 55 46 55 5 0 0 -10 -12 -23z m-2947 -27 c-9
-41 -17 -33 -9 9 4 17 9 30 11 27 3 -2 2 -19 -2 -36z m2581 -15 c-12 -23 -20
-26 -82 -29 -38 -2 -75 -5 -83 -7 -7 -2 -16 2 -18 9 -3 8 8 12 39 13 63 1 100
8 123 24 30 21 35 18 21 -10z m-3856 5 c0 -5 -4 -10 -8 -10 -19 0 -7 -30 12
-31 12 0 15 -3 9 -6 -21 -8 -15 -23 9 -23 19 0 20 -2 8 -14 -10 -9 -27 -12
-49 -9 -23 4 -29 8 -20 14 12 8 12 10 1 18 -8 4 -14 12 -14 16 0 4 6 12 14 16
9 6 6 9 -11 9 -20 0 -21 2 -11 15 14 17 60 21 60 5z m1540 -25 c12 -20 27 -41
33 -48 7 -7 17 -21 23 -32 18 -33 40 -40 83 -29 45 12 76 3 45 -14 -11 -5 -32
-12 -49 -16 -34 -8 -73 -48 -81 -83 -4 -13 -10 -23 -16 -23 -5 0 -6 -6 -2 -12
6 -10 4 -10 -7 0 -21 19 -25 15 -28 -29 -1 -27 2 -39 9 -34 7 4 9 -2 4 -19
-11 -43 39 -128 66 -111 6 4 9 1 8 -7 -2 -7 4 -13 12 -13 8 0 21 -6 28 -12 25
-24 33 -13 16 20 l-16 32 30 -29 30 -28 51 17 c42 14 53 23 70 59 12 23 21 49
21 57 1 8 7 25 15 39 13 23 14 21 13 -40 -1 -47 -7 -73 -21 -94 -44 -62 -169
-86 -247 -46 -73 37 -117 121 -125 239 -3 36 -7 78 -11 92 -4 23 -2 27 18 27
53 0 98 6 98 13 0 5 -9 13 -20 19 -11 6 -18 15 -15 20 3 4 -1 15 -9 23 -15 14
-56 83 -56 92 0 12 10 2 30 -30z m-1623 9 c-3 -3 -12 -4 -19 -1 -8 3 -5 6 6 6
11 1 17 -2 13 -5z m3643 -8 c0 -18 -17 -29 -30 -21 -8 5 -7 11 1 21 15 18 29
18 29 0z m73 -3 c14 -4 8 -10 -24 -25 -49 -21 -58 -18 -39 17 9 17 19 24 29
19 9 -3 24 -9 34 -11z m-2382 -30 c-12 -20 -14 -14 -5 12 4 9 9 14 11 11 3 -2
0 -13 -6 -23z m-1311 7 c0 -5 -12 -10 -27 -10 -22 0 -25 2 -13 10 20 13 40 13
40 0z m3965 1 c3 -5 1 -12 -5 -16 -5 -3 -10 1 -10 9 0 18 6 21 15 7z m105 -28
c0 -15 7 -34 15 -43 14 -16 13 -19 -12 -35 -38 -25 -53 -41 -46 -49 4 -3 2 -6
-4 -6 -6 0 -10 11 -10 24 0 17 4 23 13 19 20 -7 37 45 30 90 -4 25 -3 36 4 32
5 -3 10 -18 10 -32z m-374 -10 c-10 -10 -19 5 -10 18 6 11 8 11 12 0 2 -7 1
-15 -2 -18z m-3265 1 c170 -51 282 -157 344 -328 26 -71 27 -84 23 -187 -5
-97 -9 -117 -36 -172 -39 -78 -132 -173 -209 -215 -81 -43 -195 -65 -308 -60
-79 4 -99 9 -169 43 -124 61 -201 147 -244 273 -25 70 -27 103 -10 120 9 9 9
12 0 12 -19 0 -29 61 -19 115 17 96 65 192 126 252 61 59 167 127 234 148 60
19 202 18 268 -1z m3184 -2 c0 -18 -20 -15 -23 4 -3 10 1 15 10 12 7 -3 13
-10 13 -16z m240 1 c-10 -24 -10 -40 3 -90 5 -24 6 -43 2 -43 -14 0 -40 123
-28 137 16 19 31 16 23 -4z m-565 -15 c15 -16 17 -24 8 -30 -8 -5 -20 0 -30
13 -34 40 -14 55 22 17z m744 -10 c-8 -28 -12 -33 -20 -25 -9 8 6 47 17 47 6
0 7 -10 3 -22z m-364 3 c0 -5 -13 -14 -30 -20 -32 -11 -33 -10 -24 13 6 17 54
23 54 7z m251 -44 c-8 -8 -11 -7 -11 4 0 20 13 34 18 19 3 -7 -1 -17 -7 -23z
m-758 3 c-5 -18 -2 -20 32 -16 21 3 43 10 48 15 6 6 15 11 20 11 6 0 -8 -14
-29 -30 -22 -17 -52 -43 -69 -58 -41 -39 -80 -62 -105 -62 -29 0 -25 22 8 42
l27 17 -36 -5 c-41 -7 -60 10 -38 31 18 17 121 73 136 74 6 1 9 -7 6 -19z
m593 -18 c-8 -15 -25 -36 -37 -47 l-24 -20 19 23 c11 12 17 24 15 27 -6 5
-157 -19 -181 -30 -13 -5 -18 -3 -18 7 0 11 24 18 88 28 48 7 101 18 117 25
17 8 31 14 33 14 1 1 -4 -11 -12 -27z m-1456 -23 c0 -5 -7 -9 -15 -9 -9 0 -12
6 -9 15 6 15 24 11 24 -6z m44 6 c-4 -9 0 -15 10 -15 18 0 19 -6 6 -35 -8 -18
-9 -18 -9 -2 -1 10 -7 20 -15 23 -8 3 -17 12 -20 20 -3 9 -1 12 4 9 6 -3 10
-1 10 4 0 6 4 11 10 11 5 0 7 -7 4 -15z m1761 5 c3 -5 2 -10 -3 -10 -5 0 -12
-9 -15 -20 -3 -12 -14 -20 -26 -20 -27 0 -27 14 1 40 24 22 34 25 43 10z
m-2394 -33 c-10 -9 -11 -8 -5 6 3 10 9 15 12 12 3 -3 0 -11 -7 -18z m1285 -29
c-3 -18 -5 -35 -6 -38 0 -3 -5 3 -11 12 -7 12 -6 24 1 38 15 29 20 25 16 -12z
m886 -56 l-6 -27 -7 25 c-4 14 -7 34 -8 45 0 19 0 19 13 2 7 -9 11 -29 8 -45z
m-2472 28 c0 -5 -7 -10 -15 -10 -8 0 -15 5 -15 10 0 6 7 10 15 10 8 0 15 -4
15 -10z m2060 -10 c0 -5 -4 -10 -9 -10 -6 0 -13 5 -16 10 -3 6 1 10 9 10 9 0
16 -4 16 -10z m192 -25 c-5 -39 -22 -48 -22 -12 0 17 16 47 25 47 1 0 -1 -16
-3 -35z m-1852 10 c0 -9 -6 -12 -15 -9 -8 4 -12 10 -9 15 8 14 24 10 24 -6z
m1540 5 c0 -5 -7 -10 -15 -10 -8 0 -15 5 -15 10 0 6 7 10 15 10 8 0 15 -4 15
-10z m80 -5 c0 -8 -6 -15 -13 -15 -8 0 -14 7 -14 15 0 8 6 15 14 15 7 0 13 -7
13 -15z m-1916 -11 c11 -28 6 -44 -13 -44 -19 0 -31 18 -31 46 0 19 36 18 44
-2z m207 -11 c-12 -20 -14 -14 -5 12 4 9 9 14 11 11 3 -2 0 -13 -6 -23z m1794
17 c3 -5 1 -10 -4 -10 -6 0 -11 5 -11 10 0 6 2 10 4 10 3 0 8 -4 11 -10z m272
-38 c44 -29 55 -33 68 -22 16 14 20 3 6 -19 -5 -8 -16 -11 -25 -8 -9 4 -16 2
-16 -3 0 -5 12 -12 28 -16 47 -10 54 -14 50 -27 -3 -6 -19 -13 -36 -15 -24 -2
-34 2 -43 20 -7 13 -12 32 -10 42 2 14 -2 17 -13 13 -9 -4 -16 -2 -16 2 0 5 5
11 10 13 6 2 -10 14 -35 28 -25 13 -45 28 -45 33 0 10 9 5 77 -41z m-2151 11
c-7 -7 -26 7 -26 19 0 6 6 6 15 -2 9 -7 13 -15 11 -17z m1854 7 c6 -11 8 -25
5 -30 -9 -14 -48 -12 -70 4 -18 13 -17 14 11 29 38 21 41 21 54 -3z m-1807 -7
c-7 -2 -19 -2 -25 0 -7 3 -2 5 12 5 14 0 19 -2 13 -5z m92 -3 c-11 -5 -27 -9
-35 -9 -9 0 -8 4 5 9 11 5 27 9 35 9 9 0 8 -4 -5 -9z m2065 -4 c0 -3 -4 -8
-10 -11 -5 -3 -10 -1 -10 4 0 6 5 11 10 11 6 0 10 -2 10 -4z m-2465 -25 c-3
-5 -1 -12 4 -15 5 -4 12 2 14 11 3 11 5 7 6 -10 1 -24 -3 -28 -21 -25 -28 4
-39 48 -13 48 9 0 14 -4 10 -9z m3525 -11 c0 -5 -5 -10 -11 -10 -5 0 -7 5 -4
10 3 6 8 10 11 10 2 0 4 -4 4 -10z m-1240 -20 c0 -11 -2 -20 -4 -20 -2 0 -6 9
-9 20 -3 11 -1 20 4 20 5 0 9 -9 9 -20z m70 10 c0 -5 -4 -10 -10 -10 -5 0 -10
5 -10 10 0 6 5 10 10 10 6 0 10 -4 10 -10z m-2578 -57 c22 -19 23 -41 3 -67
-13 -17 -15 -18 -15 -3 0 9 -4 17 -8 17 -13 0 -35 47 -28 59 10 16 27 14 48
-6z m-150 -18 c6 -29 2 -31 -18 -10 -9 8 -12 19 -9 25 11 17 22 11 27 -15z
m693 15 c-3 -5 -18 -9 -33 -9 l-27 1 30 8 c17 4 31 8 33 9 2 0 0 -3 -3 -9z
m120 -48 c-6 -16 -7 -16 -16 1 -6 9 -14 15 -19 12 -5 -3 -11 -1 -14 4 -4 5 5
8 19 6 14 -1 25 3 26 9 0 6 3 6 6 -2 3 -7 2 -20 -2 -30z m-909 0 c-4 -3 -14 2
-24 12 -16 18 -16 18 6 6 13 -6 21 -14 18 -18z m3889 -12 c10 -11 16 -20 13
-20 -3 0 -13 9 -23 20 -10 11 -16 20 -13 20 3 0 13 -9 23 -20z m-3830 0 c3 -5
-1 -10 -9 -10 -8 0 -18 5 -21 10 -3 6 1 10 9 10 8 0 18 -4 21 -10z m-1645 -40
c0 -5 -4 -10 -10 -10 -5 0 -10 5 -10 10 0 6 5 10 10 10 6 0 10 -4 10 -10z
m330 -20 c0 -5 -9 -10 -20 -10 -11 0 -20 5 -20 10 0 6 9 10 20 10 11 0 20 -4
20 -10z m1345 2 c7 -4 -1 -25 -22 -56 -35 -52 -43 -41 -17 24 17 41 21 45 39
32z m-1285 -206 c0 -2 -7 -7 -16 -10 -8 -3 -12 -2 -9 4 6 10 25 14 25 6z"/>
<path d="M4230 3558 c0 -7 5 -20 10 -28 12 -19 35 2 27 24 -7 19 -37 21 -37 4z"/>
<path d="M1595 3320 c-4 -12 -5 -24 -2 -27 3 -2 8 5 12 17 4 12 5 24 2 27 -3
2 -8 -5 -12 -17z"/>
<path d="M1540 3132 c0 -5 7 -13 16 -16 22 -8 24 -8 24 6 0 6 -3 8 -7 5 -3 -4
-12 -2 -20 4 -8 7 -13 8 -13 1z"/>
<path d="M3138 3294 c-38 -30 -68 -57 -68 -60 0 -7 116 84 131 102 20 24 6 15
-63 -42z"/>
<path d="M2949 3143 c-13 -16 -12 -17 4 -4 16 13 21 21 13 21 -2 0 -10 -8 -17
-17z"/>
<path d="M2940 3030 c-9 -6 -10 -10 -3 -10 6 0 15 5 18 10 8 12 4 12 -15 0z"/>
<path d="M3741 3134 c0 -11 3 -14 6 -6 3 7 2 16 -1 19 -3 4 -6 -2 -5 -13z"/>
<path d="M2005 3210 c-3 -5 -1 -10 4 -10 6 0 11 5 11 10 0 6 -2 10 -4 10 -3 0
-8 -4 -11 -10z"/>
<path d="M3150 2970 c-19 -17 -30 -30 -24 -30 6 0 23 14 39 30 36 38 30 38
-15 0z"/>
<path d="M3369 3013 c-13 -16 -12 -17 4 -4 16 13 21 21 13 21 -2 0 -10 -8 -17
-17z"/>
<path d="M3294 2948 l-19 -23 23 19 c12 11 22 21 22 23 0 8 -8 2 -26 -19z"/>
<path d="M3204 2868 l-29 -33 33 29 c30 28 37 36 29 36 -2 0 -16 -15 -33 -32z"/>
<path d="M330 2860 c0 -5 5 -10 10 -10 6 0 10 5 10 10 0 6 -4 10 -10 10 -5 0
-10 -4 -10 -10z"/>
<path d="M335 2720 c28 -12 57 -12 50 0 -3 6 -21 10 -38 9 -27 0 -29 -2 -12
-9z"/>
<path d="M345 2690 c19 -8 19 -9 1 -9 -11 -1 -17 -4 -13 -7 3 -4 18 -3 34 0
21 6 24 9 12 17 -7 5 -23 8 -34 8 l-20 0 20 -9z"/>
<path d="M115 2896 c-11 -8 -14 -15 -8 -19 6 -4 16 0 23 8 17 21 8 28 -15 11z"/>
<path d="M1418 2723 c7 -3 16 -2 19 1 4 3 -2 6 -13 5 -11 0 -14 -3 -6 -6z"/>
<path d="M1980 2755 c7 -9 15 -13 17 -11 7 7 -7 26 -19 26 -6 0 -6 -6 2 -15z"/>
<path d="M1976 2708 c3 -4 9 -8 15 -8 5 0 9 4 9 8 0 5 -7 9 -15 9 -8 0 -12 -4
-9 -9z"/>
<path d="M151 2279 c-1 -23 7 -46 19 -62 13 -16 16 -28 10 -32 -5 -3 -10 -1
-10 6 0 7 -3 9 -7 6 -3 -4 2 -16 11 -26 19 -21 46 -18 46 5 0 12 4 13 22 3 22
-12 22 -12 5 15 -10 14 -15 26 -12 26 4 0 -1 7 -9 16 -9 8 -16 22 -16 29 0 8
-5 17 -12 21 -8 5 -9 2 -5 -10 5 -13 2 -17 -10 -14 -9 2 -20 14 -24 28 -6 22
-7 20 -8 -11z"/>
<path d="M130 2126 c0 -8 5 -18 10 -21 6 -3 10 1 10 9 0 8 -4 18 -10 21 -5 3
-10 -1 -10 -9z"/>
<path d="M321 2064 c0 -11 3 -14 6 -6 3 7 2 16 -1 19 -3 4 -6 -2 -5 -13z"/>
<path d="M350 2032 c6 -13 14 -21 18 -18 3 4 -2 14 -12 24 -18 16 -18 16 -6
-6z"/>
<path d="M290 2015 l-25 -13 28 -13 c15 -7 27 -16 27 -21 0 -14 18 -9 24 7 14
37 -17 60 -54 40z m40 -14 c0 -4 -6 -8 -14 -8 -8 0 -12 6 -9 14 5 13 23 9 23
-6z"/>
<path d="M495 1970 c3 -5 8 -10 11 -10 2 0 4 5 4 10 0 6 -5 10 -11 10 -5 0 -7
-4 -4 -10z"/>
<path d="M1315 2411 c-57 -10 -78 -24 -81 -59 -4 -31 22 -54 36 -31 5 7 10 7
14 1 3 -5 24 -12 46 -16 22 -3 40 -10 40 -15 0 -6 13 -9 29 -9 35 1 81 -26 81
-47 0 -8 5 -15 10 -15 6 0 10 -6 10 -14 0 -8 10 -37 22 -65 17 -38 29 -52 50
-56 40 -9 53 -30 39 -61 -10 -23 -9 -25 9 -19 16 5 20 2 20 -17 0 -13 9 -43
20 -67 22 -47 26 -91 9 -91 -6 0 -8 -9 -4 -20 4 -12 2 -27 -5 -34 -6 -8 -10
-18 -9 -22 1 -5 -1 -26 -4 -46 -16 -88 -17 -108 -8 -108 5 0 33 22 63 49 63
58 102 130 123 231 9 41 17 76 19 78 3 2 3 -25 1 -60 l-4 -63 10 67 c8 54 7
80 -6 130 -24 98 -71 184 -135 248 -67 67 -135 102 -244 124 -83 17 -89 17
-151 7z m261 -259 c-9 -9 -37 8 -31 18 5 8 11 7 21 -1 8 -6 12 -14 10 -17z
m14 -40 c0 -15 -2 -15 -10 -2 -13 20 -13 33 0 25 6 -3 10 -14 10 -23z"/>
<path d="M1282 2255 c-9 -19 -8 -26 2 -32 7 -4 16 -23 19 -41 6 -30 5 -32 -13
-22 -10 5 -21 20 -23 32 -3 17 -5 15 -6 -8 -1 -23 4 -33 18 -37 12 -3 21 -17
25 -41 4 -22 15 -40 29 -47 12 -7 31 -23 42 -36 26 -29 36 -29 31 0 -3 12 -5
22 -6 22 -1 0 -3 15 -5 33 -3 31 -32 76 -62 95 -7 4 -13 15 -13 24 0 9 -7 25
-16 35 -14 14 -14 20 -4 33 7 8 8 15 3 15 -5 0 -15 -11 -21 -25z"/>
<path d="M1100 2212 c0 -31 5 -41 30 -55 22 -14 30 -15 30 -5 0 19 -16 40 -26
36 -5 -1 -10 12 -12 30 -4 45 -22 40 -22 -6z"/>
<path d="M1380 2212 c0 -10 22 -32 32 -32 15 0 8 15 -12 28 -11 7 -20 9 -20 4z"/>
<path d="M1172 2050 c0 -14 2 -19 5 -12 2 6 2 18 0 25 -3 6 -5 1 -5 -13z"/>
<path d="M1198 2053 c7 -3 16 -2 19 1 4 3 -2 6 -13 5 -11 0 -14 -3 -6 -6z"/>
<path d="M1281 1974 c0 -11 3 -14 6 -6 3 7 2 16 -1 19 -3 4 -6 -2 -5 -13z"/>
<path d="M1354 1963 c4 -5 13 -8 19 -8 5 0 12 -6 15 -14 3 -9 -2 -11 -19 -7
-18 4 -16 2 6 -9 49 -23 62 -20 57 15 -4 28 -7 30 -45 30 -22 0 -37 -3 -33 -7z"/>
<path d="M1100 1946 c0 -7 7 -19 15 -26 11 -9 15 -9 15 -1 0 7 10 5 26 -6 14
-9 36 -17 49 -18 13 0 32 -11 42 -24 l19 -23 0 35 c0 29 -4 37 -23 42 -13 3
-28 3 -33 0 -6 -4 -10 0 -10 8 0 18 -21 27 -66 27 -22 0 -34 -5 -34 -14z"/>
<path d="M1491 1858 c0 -7 4 -22 9 -33 7 -18 8 -19 15 -2 4 9 5 24 1 32 -7 18
-26 20 -25 3z"/>
<path d="M1826 1815 c-3 -9 -6 -22 -5 -28 0 -7 5 -1 10 12 5 13 8 26 5 28 -2
2 -6 -3 -10 -12z"/>
<path d="M1490 1755 c0 -33 2 -35 33 -35 27 1 30 2 16 13 -9 7 -19 22 -23 35
-11 34 -26 26 -26 -13z"/>
<path d="M1390 1758 c0 -9 5 -20 10 -23 13 -8 13 5 0 25 -8 13 -10 13 -10 -2z"/>
<path d="M1791 1727 l-23 -42 27 26 c15 15 25 34 23 43 -2 10 -11 1 -27 -27z"/>
<path d="M1277 1736 l-28 -23 33 -9 c22 -7 32 -16 30 -26 -4 -27 16 -30 38 -8
21 21 21 23 4 41 -9 10 -23 19 -30 19 -8 0 -11 6 -8 15 9 21 -6 18 -39 -9z"/>
<path d="M1257 1665 c11 -8 24 -31 28 -52 6 -36 19 -52 39 -53 5 0 3 7 -4 15
-7 8 -10 22 -6 30 3 8 1 15 -5 15 -6 0 -7 5 -4 10 8 12 -33 49 -55 50 -10 0
-8 -5 7 -15z"/>
<path d="M1744 1659 c-19 -22 -19 -22 4 -10 12 6 22 16 22 21 0 15 -5 12 -26
-11z"/>
<path d="M1390 1636 c0 -9 7 -16 16 -16 17 0 14 22 -4 28 -7 2 -12 -3 -12 -12z"/>
<path d="M1200 1627 c0 -10 8 -17 18 -17 9 0 13 4 7 8 -5 4 -13 11 -17 16 -5
5 -8 2 -8 -7z"/>
<path d="M1344 1604 c3 -9 6 -20 6 -25 0 -6 4 -8 9 -5 12 8 2 46 -11 46 -6 0
-7 -7 -4 -16z"/>
<path d="M1467 1603 c-14 -13 -6 -21 23 -25 34 -5 40 6 11 22 -23 12 -26 12
-34 3z"/>
<path d="M5810 4159 c0 -6 6 -9 14 -6 8 3 17 3 21 -1 4 -4 10 -7 13 -8 25 -3
68 -29 86 -51 24 -30 76 -145 83 -185 3 -16 9 -28 14 -28 5 0 6 -7 3 -15 -4
-8 -1 -15 5 -15 6 0 11 -5 11 -12 0 -24 54 -119 74 -130 21 -11 21 -11 2 11
-20 22 -20 22 0 15 19 -7 19 -7 0 14 -25 29 -9 28 21 0 22 -21 24 -21 17 -3
-7 20 -7 20 17 0 l24 -20 -24 28 c-24 27 -38 36 -26 17 11 -18 -11 -11 -29 9
-17 19 -17 19 6 15 22 -5 22 -5 4 10 -11 9 -16 19 -13 23 4 3 26 -14 49 -38
30 -32 35 -35 20 -12 -27 38 -28 50 -4 33 9 -7 -4 8 -30 33 -55 52 -63 69 -15
34 17 -13 39 -28 47 -32 13 -8 13 -7 1 8 -8 10 -9 17 -3 17 6 0 18 -10 26 -22
9 -12 16 -17 16 -11 0 12 -75 83 -88 83 -4 -1 4 -10 17 -21 32 -26 21 -35 -11
-9 -18 13 -38 19 -68 17 -38 -2 -44 1 -45 20 -2 21 24 37 54 33 9 -1 12 4 7
16 -5 13 -3 14 6 6 7 -5 25 -10 40 -9 25 2 25 3 11 20 -18 19 -12 22 20 6 21
-10 21 -10 3 5 -11 9 -28 14 -37 11 -10 -3 -43 -8 -73 -10 -47 -3 -58 0 -66
15 -13 24 0 32 46 32 19 0 34 4 34 9 0 4 7 6 15 3 8 -4 15 -1 15 6 0 7 7 10
17 6 13 -5 11 0 -6 18 -22 24 -49 27 -35 4 4 -6 -1 -6 -14 1 -11 6 -39 8 -62
5 -30 -4 -45 -2 -51 7 -21 33 -10 39 69 41 12 0 22 4 22 9 0 5 -56 9 -125 9
-85 0 -125 -4 -125 -11z m360 -324 c7 -8 8 -15 2 -15 -5 0 -15 7 -22 15 -7 8
-8 15 -2 15 5 0 15 -7 22 -15z"/>
<path d="M6200 4126 c0 -2 7 -9 15 -16 9 -7 15 -8 15 -2 0 5 -7 12 -15 16 -8
3 -15 4 -15 2z"/>
<path d="M6130 4116 c0 -3 11 -13 24 -22 18 -11 30 -13 42 -6 15 9 15 11 -7
22 -22 12 -23 12 -10 -3 17 -21 7 -22 -24 -1 -14 9 -25 14 -25 10z"/>
<path d="M6204 4011 c21 -23 26 -26 26 -11 0 5 -10 15 -22 21 -23 12 -23 12
-4 -10z"/>
<path d="M3378 3973 c-10 -2 -18 -9 -18 -14 0 -6 8 -5 20 1 11 6 20 13 20 15
0 3 -1 4 -2 4 -2 -1 -11 -3 -20 -6z"/>
<path d="M3938 3943 c23 -2 59 -2 80 0 20 2 1 4 -43 4 -44 0 -61 -2 -37 -4z"/>
<path d="M5981 3920 c0 -8 4 -22 9 -30 12 -18 12 -2 0 25 -6 13 -9 15 -9 5z"/>
<path d="M6232 3905 c12 -14 24 -23 26 -20 6 6 -28 45 -39 45 -5 0 1 -11 13
-25z"/>
<path d="M6221 3884 c19 -22 36 -39 39 -37 2 2 -13 20 -35 41 l-39 37 35 -41z"/>
<path d="M4295 3862 c6 -6 55 -33 110 -62 54 -28 106 -56 115 -63 8 -6 6 -1
-4 11 -11 13 -38 31 -60 42 -23 11 -59 30 -81 43 -46 27 -96 46 -80 29z"/>
<path d="M4868 3766 c-22 -16 -23 -23 -3 -23 8 0 12 4 9 8 -2 4 4 12 13 18 10
6 14 10 8 10 -5 0 -18 -6 -27 -13z"/>
<path d="M6134 3686 c11 -9 24 -16 30 -16 12 0 7 5 -24 19 -24 11 -24 11 -6
-3z"/>
<path d="M4630 3670 c-8 -5 -12 -12 -9 -15 4 -3 12 1 19 10 14 17 11 19 -10 5z"/>
<path d="M4864 3626 c23 -18 36 -20 36 -6 0 6 -4 10 -9 10 -5 0 -18 3 -28 6
-16 5 -16 4 1 -10z"/>
<path d="M6183 3620 c-25 -10 -22 -40 4 -40 13 0 13 2 2 16 -12 15 -11 16 11
10 17 -5 21 -4 11 2 -11 8 -10 11 5 15 11 3 13 5 4 5 -8 0 -25 -3 -37 -8z"/>
<path d="M6077 3600 c3 -11 9 -17 15 -14 5 3 4 12 -3 20 -16 19 -18 18 -12 -6z"/>
<path d="M4685 3590 c-3 -5 -1 -10 4 -10 6 0 11 5 11 10 0 6 -2 10 -4 10 -3 0
-8 -4 -11 -10z"/>
<path d="M4720 3573 c8 -3 24 -10 35 -15 20 -9 20 -9 1 6 -11 9 -27 16 -35 15
-14 0 -14 -1 -1 -6z"/>
<path d="M4535 3550 c-3 -5 1 -13 10 -16 22 -9 29 1 11 15 -10 8 -16 9 -21 1z"/>
<path d="M5075 3550 c3 -5 8 -10 11 -10 2 0 4 5 4 10 0 6 -5 10 -11 10 -5 0
-7 -4 -4 -10z"/>
<path d="M6085 3550 c7 -12 45 -19 45 -9 0 5 -3 9 -7 10 -5 0 -16 2 -26 4 -9
2 -15 0 -12 -5z"/>
<path d="M4610 3540 c0 -5 5 -10 11 -10 5 0 7 5 4 10 -3 6 -8 10 -11 10 -2 0
-4 -4 -4 -10z"/>
<path d="M6217 3533 c-11 -11 13 -42 28 -37 8 4 15 10 15 15 0 11 -36 30 -43
22z"/>
<path d="M4695 3410 c3 -5 8 -10 11 -10 2 0 4 5 4 10 0 6 -5 10 -11 10 -5 0
-7 -4 -4 -10z"/>
<path d="M4510 3396 c0 -8 5 -18 10 -21 6 -3 10 1 10 9 0 8 -4 18 -10 21 -5 3
-10 -1 -10 -9z"/>
<path d="M4567 3364 c-10 -11 3 -24 23 -24 13 0 17 5 14 15 -6 15 -26 20 -37
9z"/>
<path d="M4537 3331 c2 -9 13 -17 24 -17 24 0 20 17 -8 27 -17 6 -20 4 -16
-10z"/>
<path d="M4580 3200 c-13 -9 -13 -10 0 -10 8 0 22 5 30 10 13 9 13 10 0 10 -8
0 -22 -5 -30 -10z"/>
<path d="M4481 3171 c-8 -5 -9 -11 -3 -15 5 -3 12 1 16 9 6 17 6 18 -13 6z"/>
<path d="M4588 3173 c7 -3 16 -2 19 1 4 3 -2 6 -13 5 -11 0 -14 -3 -6 -6z"/>
<path d="M4200 3136 c0 -2 11 -6 25 -8 14 -3 25 -1 25 3 0 5 -11 9 -25 9 -14
0 -25 -2 -25 -4z"/>
<path d="M4470 3130 c8 -5 20 -10 25 -10 6 0 3 5 -5 10 -8 5 -19 10 -25 10 -5
0 -3 -5 5 -10z"/>
<path d="M4163 3103 c9 -2 25 -2 35 0 9 3 1 5 -18 5 -19 0 -27 -2 -17 -5z"/>
<path d="M4138 3063 c7 -3 16 -2 19 1 4 3 -2 6 -13 5 -11 0 -14 -3 -6 -6z"/>
<path d="M4406 2895 c-3 -9 0 -15 9 -15 9 0 12 6 9 15 -4 8 -7 15 -9 15 -2 0
-5 -7 -9 -15z"/>
<path d="M4280 2840 c-8 -6 -33 -10 -56 -10 -22 0 -44 -3 -47 -7 -13 -12 -88
-14 -102 -3 -10 8 -16 7 -25 -7 -8 -13 -13 -14 -16 -5 -3 6 -15 12 -25 12 -13
0 -18 -5 -14 -12 4 -7 0 -5 -8 5 -15 18 -17 18 -59 -1 -33 -16 -38 -21 -20
-21 24 -1 30 -29 11 -48 -6 -6 -12 -30 -13 -53 -2 -37 0 -41 19 -36 16 4 25
-2 38 -23 9 -16 17 -39 17 -50 0 -25 8 -26 39 -4 22 15 23 17 6 29 -9 7 -23
10 -31 7 -9 -3 -14 2 -14 14 0 10 -9 24 -20 31 -25 15 -27 53 -2 49 9 -1 23
-6 31 -11 10 -7 12 -3 6 14 -6 20 -4 22 14 17 11 -3 21 0 21 5 0 6 6 5 15 -2
13 -11 15 -10 10 1 -3 10 20 23 83 46 48 17 98 34 112 37 30 7 56 23 49 30 -2
3 -11 1 -19 -4z"/>
<path d="M3706 2827 c3 -10 9 -15 12 -12 3 3 0 11 -7 18 -10 9 -11 8 -5 -6z"/>
<path d="M3736 2791 c-3 -5 0 -20 7 -33 11 -22 14 -23 27 -10 13 15 26 51 13
38 -3 -3 -14 -1 -24 4 -10 6 -20 6 -23 1z"/>
<path d="M4204 2699 c-16 -16 -22 -28 -14 -24 13 5 56 55 47 55 -2 0 -16 -14
-33 -31z"/>
<path d="M4040 2690 c6 -11 15 -20 21 -20 6 0 6 7 -1 20 -6 11 -15 20 -21 20
-6 0 -6 -7 1 -20z"/>
<path d="M3804 2670 c0 -11 6 -20 13 -20 15 0 15 2 7 24 -9 22 -20 20 -20 -4z"/>
<path d="M4073 2658 c-13 -17 -13 -50 0 -45 6 2 11 15 11 30 2 31 2 31 -11 15z"/>
<path d="M3453 2632 c-5 -22 -23 -31 -23 -11 0 5 -5 7 -10 4 -8 -5 -8 -11 0
-20 6 -7 8 -19 4 -28 -4 -12 -1 -14 14 -10 13 3 22 16 26 41 6 40 -2 58 -11
24z"/>
<path d="M3484 2631 c0 -11 4 -17 8 -15 4 3 8 12 8 20 0 8 -4 14 -8 14 -4 0
-8 -9 -8 -19z"/>
<path d="M3513 2624 c-17 -37 -9 -44 32 -26 34 16 34 16 15 34 -26 24 -33 23
-47 -8z"/>
<path d="M4333 2623 c-18 -6 -16 -33 1 -33 19 0 31 19 20 30 -5 4 -15 5 -21 3z"/>
<path d="M3477 2580 c3 -11 7 -20 9 -20 2 0 4 9 4 20 0 11 -4 20 -9 20 -5 0
-7 -9 -4 -20z"/>
<path d="M3825 2570 c3 -5 16 -10 28 -10 18 0 19 2 7 10 -20 13 -43 13 -35 0z"/>
<path d="M3726 2511 c2 -40 3 -41 19 -35 23 9 20 63 -3 61 -13 -1 -17 -8 -16
-26z"/>
<path d="M4157 2523 c-9 -15 10 -36 27 -30 18 7 22 37 5 37 -5 0 -7 -6 -3 -12
6 -10 4 -10 -8 0 -9 7 -19 9 -21 5z"/>
<path d="M3500 2490 c0 -5 5 -10 11 -10 5 0 7 5 4 10 -3 6 -8 10 -11 10 -2 0
-4 -4 -4 -10z"/>
<path d="M3826 2493 c-15 -4 -16 -7 -5 -14 10 -6 11 -11 3 -19 -13 -13 -43
-15 -124 -7 -36 3 -55 3 -42 1 12 -3 22 -12 22 -19 0 -8 9 -20 21 -29 21 -14
21 -14 -7 -30 -16 -8 -25 -15 -20 -16 15 0 186 93 186 102 0 5 -5 6 -11 2 -8
-4 -9 0 -4 15 3 11 5 20 3 20 -2 -1 -12 -4 -22 -6z"/>
<path d="M3391 2461 c-10 -7 -8 -10 8 -16 27 -8 36 -2 18 13 -7 6 -18 7 -26 3z"/>
<path d="M3646 2433 c7 -4 14 -17 17 -28 5 -16 5 -15 4 4 -1 14 -9 26 -17 28
-10 3 -11 2 -4 -4z"/>
<path d="M3550 2380 c0 -6 7 -10 15 -10 8 0 15 2 15 4 0 2 -7 6 -15 10 -8 3
-15 1 -15 -4z"/>
</g>
</svg>
